<svg width="3295" height="3810" viewBox="0 0 3295 3810" fill="none" xmlns="http://www.w3.org/2000/svg">
<path d="M955 7.65394C938 15.6539 873.333 59.9872 831.667 91.9872C782.667 129.987 763.333 153.987 763.333 177.987C763.333 190.654 774.667 215.321 785.333 226.654L793.667 235.321L756.667 257.654C660.333 315.654 533.333 370.654 411.333 407.654C349.333 426.32 247.667 452.987 237.667 452.987C228 452.987 228 454.987 239.667 496.654C296 696.32 399.333 855.32 561.667 991.654C595.667 1019.99 642 1051.99 645 1048.99C645.667 1048.32 664 1020.99 686 987.987C781.333 844.321 877.667 727.987 988.333 621.987C1016.33 594.987 1040 572.987 1041 572.987C1041.67 572.987 1047.33 579.987 1053.33 588.654C1059.67 597.654 1077 621.321 1092 641.321L1119.33 678.321L1115.67 693.987C1112.67 708.321 1111.33 709.654 1100.33 711.654C1060 718.32 1021 739.32 1003 763.654C983.333 790.987 981.667 803.987 982.333 912.987C983 1022.99 988 1181.65 995 1329.65C998 1391.32 1000.67 1539.65 1001.67 1726.32C1003.67 2078.99 1005 2131.99 1011.67 2171.32C1024.33 2244.32 1056 2325.65 1101.67 2402.65C1111.67 2419.99 1119.67 2434.65 1118.67 2435.32C1118 2435.99 1092.33 2447.32 1061.33 2459.99C847.333 2549.65 521.333 2715.32 425.333 2783.65C386.333 2811.32 348 2847.65 323.667 2879.65C306 2902.99 261.667 2983.65 264.667 2986.65C265.667 2987.32 280 2987.32 297 2986.32L328.333 2984.65L340 2962.99C368 2911.99 409.667 2865.32 456 2833.65C508 2798.32 665.667 2710.99 764 2663.65C790.333 2650.65 839.333 2626.99 873.333 2610.65C973.333 2561.99 1146 2486.32 1156.67 2486.32C1158 2486.32 1165.33 2494.32 1172.67 2503.65C1228.33 2577.32 1327.67 2656.99 1416.67 2699.32C1479.33 2728.99 1566.67 2754.65 1628.33 2761.32C1653 2763.99 1733.33 2748.65 1786.67 2730.99C1857.67 2707.65 1940 2661.32 2000 2611.32C2029.33 2586.99 2089.33 2525.32 2108.33 2500.32C2115.67 2490.65 2123 2483.65 2125 2484.32C2126.67 2485.32 2158.33 2498.65 2195 2513.99C2320.67 2567.32 2419.67 2613.65 2551.67 2680.99C2667 2739.99 2780.67 2802.65 2815 2826.65C2869.33 2863.99 2906.67 2903.65 2937.67 2956.99L2955 2986.32H2985.67C3002.67 2986.32 3016.67 2984.99 3016.67 2983.32C3016.67 2976.99 2979.67 2908.32 2965.67 2888.99C2949 2865.65 2924.67 2839.65 2896 2813.99L2877 2797.32L2892.33 2794.99C2900.67 2793.99 2912.33 2792.99 2918.33 2792.99C2931 2792.99 2959.67 2783.32 2984 2771.32C3012.33 2757.32 3036.33 2736.65 3054 2711.65C3093 2655.99 3092.67 2600.32 3053 2534.32C3039.67 2512.65 3000.67 2467.65 2912 2372.99C2751 2200.99 2637.33 2068.99 2528.33 1927.99C2445.33 1820.32 2351.67 1698.32 2341.67 1683.99C2336 1675.99 2330.67 1669.65 2329.67 1669.65C2328.33 1669.65 2325.33 1672.99 2322.33 1677.32C2317.33 1685.32 2283 1712.99 2278.33 1712.99C2277 1712.99 2276.67 1643.65 2278 1558.65C2280 1419.65 2282.33 1367.32 2293.33 1177.99C2297.67 1103.99 2297.67 939.654 2293.33 901.321C2289.33 868.321 2276.67 815.987 2265 786.654C2256 763.32 2243.33 742.987 2226 724.321L2212.67 709.987L2222.67 695.654C2263.33 636.32 2286.67 555.32 2282.33 486.654C2276 386.654 2223.33 297.987 2136.67 241.321L2108.33 222.987L2106.67 255.321C2104.67 294.321 2095.33 317.32 2072 342.32C2043.67 372.32 2001.33 387.654 1935 391.654C1893 393.987 1852.33 390.32 1768.67 376.32C1691.67 363.32 1628.67 358.32 1570 360.654C1486.33 363.987 1412.33 378.32 1358.33 401.654C1343.33 407.654 1330 412.987 1328 412.987C1326.33 412.987 1319 405.321 1312 395.987C1300.33 379.987 1299.67 378.32 1305.33 375.32C1316 369.32 1340.33 345.321 1345.33 335.987C1352.67 321.654 1351 299.987 1341.67 280.987C1321.67 240.987 1169 45.6539 1146 30.6539C1123.33 15.3206 1096 20.3205 1066.67 44.9872C1056.33 53.9872 1055.67 53.9873 1052.33 47.6539C1045.33 34.9873 1018 8.65402 1007.67 4.32069C992 -2.34598 974 -1.34606 955 7.65394ZM2037.67 863.654C2069 879.987 2106 912.987 2129 945.321C2145.33 968.321 2172.33 1023.65 2182.67 1056.32C2212.67 1147.99 2224 1248.99 2224.67 1424.65C2225 1512.32 2224 1532.65 2219 1557.65C2198.67 1657.32 2124.67 1808.99 2034.67 1934.65L2002 1980.65L1995 1970.99C1978.67 1947.65 1942.33 1913.99 1911.67 1893.32C1843.67 1847.99 1770.67 1826.32 1709 1832.99C1685.33 1835.65 1648.33 1846.65 1642.33 1852.65C1640.67 1854.32 1631.67 1851.65 1620.67 1845.99C1563 1816.65 1463.67 1833.65 1377.33 1886.99C1350.33 1903.99 1298 1950.99 1284.33 1970.65L1278 1980.32L1255.33 1949.65C1190.67 1861.99 1120 1735.99 1088.67 1652.32C1057.33 1568.32 1050.33 1504.32 1056 1358.65C1058 1306.99 1062.33 1244.99 1065 1221.32C1093.67 980.987 1177 873.654 1328.33 880.654C1370.33 882.654 1407 892.321 1557.67 941.321L1647 970.321L1757.67 936.654C1897 893.987 1941.67 878.987 1975 862.987C1989.67 855.987 2003.67 849.987 2006 849.987C2008.67 849.654 2023 855.987 2037.67 863.654ZM2443 2214.65C2553.67 2370.65 2630.67 2496.65 2693.33 2624.65C2709.67 2657.65 2727 2691.32 2732 2699.32L2741 2714.32L2729.67 2707.32C2647.33 2657.32 2387.33 2529.65 2251 2472.65C2225 2461.99 2203 2452.99 2202.33 2452.99C2201.33 2452.99 2190.67 2448.65 2178.67 2443.32L2156.67 2433.32L2168.67 2415.65C2186.33 2388.99 2217.33 2325.99 2234.33 2282.65C2266.67 2200.99 2273.33 2162.65 2273.33 2058.65V1982.32L2335.67 2066.99C2370 2113.32 2418 2179.65 2443 2214.65ZM1735.67 2025.65C1826.67 2056.99 1850 2066.32 1864.67 2077.32C1871 2081.99 1870.67 2082.65 1856.33 2091.65C1824.33 2111.99 1721.33 2149.65 1712.67 2144.32C1711.33 2143.32 1710 2133.65 1710 2122.65V2102.99H1638.33H1566.67V2124.65C1566.67 2136.65 1565.67 2146.32 1564.67 2146.32C1558.33 2146.32 1491.33 2124.99 1471 2116.65C1450 2107.99 1410 2085.32 1410 2081.65C1410 2080.99 1416.33 2076.32 1423.67 2070.99C1432.67 2064.99 1474 2048.99 1538 2027.65C1593 2008.99 1638.67 1993.65 1639 1993.32C1639.33 1993.32 1682.67 2007.65 1735.67 2025.65ZM2905.33 2541.32C2935.67 2560.99 2932.33 2604.32 2899.33 2621.65C2886.67 2628.32 2871.33 2627.32 2856.67 2619.32C2840.67 2610.32 2833.33 2597.32 2833.33 2578.65C2833.33 2543.65 2875.67 2521.65 2905.33 2541.32Z" fill="#DBC170"/>
<path d="M1163.33 1305.32C1146 1321.32 1131.33 1334.99 1130.67 1336.32C1130.33 1337.32 1150.67 1342.32 1175.67 1347.32C1201 1352.65 1281.67 1369.65 1355 1385.32C1481.67 1412.32 1489 1413.65 1501.67 1409.32C1518 1403.65 1530 1386.65 1530 1369.99C1530 1354.32 1520.33 1335.65 1510 1330.65C1503 1327.32 1278.33 1288.32 1225 1280.99C1217.67 1279.99 1208 1278.65 1203.33 1277.65C1196.33 1276.32 1189.33 1280.99 1163.33 1305.32Z" fill="#DBC170"/>
<path d="M2045 1282.99C2026.67 1285.99 1958.67 1297.32 1893.67 1307.65C1824 1318.99 1773 1328.65 1768.33 1331.65C1741.67 1348.99 1745.67 1394.65 1775 1408.65C1788.33 1414.99 1783.67 1415.65 1921.67 1386.32C1964 1377.32 2034.33 1362.65 2078 1353.99L2157.67 1338.32L2144.67 1326.99C2098 1285.99 2086 1276.32 2082.33 1276.65C2080.33 1276.99 2063.33 1279.65 2045 1282.99Z" fill="#DBC170"/>
<path d="M170 468.321C160 470.654 127.667 477.654 98.3333 483.654C69 489.321 44.3333 494.654 44 494.988C41.3333 496.654 60.6667 571.988 73.6667 612.654C153 856.654 282.667 1038.99 485.333 1191.65C511 1210.65 533.333 1226.32 535 1226.32C538.333 1226.32 623.333 1085.65 623.333 1080.65C623 1079.32 612.333 1070.32 599.333 1061.32C514.333 1001.65 420.667 909.987 366.333 833.321C293 729.654 243 625.654 209.667 507.988C202 480.654 195.667 464.321 193 463.988C190.333 463.988 180 465.654 170 468.321Z" fill="#DBC170"/>
<path d="M1261 3208.99C1212.67 3226.32 1184.67 3266.65 1176.67 3330.65C1173 3361.99 1176.67 3408.99 1184.67 3431.99C1196.67 3465.99 1218.67 3493.65 1243.67 3506.32C1289.67 3529.99 1357.33 3517.65 1390.33 3479.99C1406.33 3461.99 1413.33 3441.65 1406.33 3434.99C1401.67 3430.32 1362.33 3416.32 1354.67 3416.32C1352.33 3416.32 1347 3422.32 1343 3429.65C1330.67 3451.32 1310 3460.32 1289 3452.99C1265 3445.32 1254 3421.99 1251 3374.65C1247 3307.65 1266.33 3266.32 1301.67 3266.32C1319 3266.32 1332 3274.32 1342 3291.32C1348.33 3302.65 1352.67 3306.32 1358.67 3306.32C1373.33 3306.32 1410.67 3295.65 1412.33 3290.65C1415.33 3282.65 1399.33 3249.65 1385.33 3235.32C1364 3213.32 1344 3204.99 1308.33 3203.99C1285.67 3202.99 1274.33 3204.32 1261 3208.99Z" fill="#DBC170"/>
<path d="M2755.67 3206.32C2726.33 3213.65 2695.33 3239.32 2680.67 3268.65C2661 3306.99 2655.67 3377.99 2669.33 3421.32C2687.33 3478.99 2718 3507.99 2769.67 3516.65C2836 3527.32 2895.33 3485.32 2911.67 3415.99C2922.67 3368.32 2915 3295.32 2895.33 3261.32C2884.33 3242.99 2859.67 3220.65 2840.67 3211.99C2823 3204.32 2777 3200.99 2755.67 3206.32ZM2812.67 3272.99C2819.33 3277.32 2826.67 3285.99 2831 3295.65C2837.67 3309.65 2838.33 3316.99 2838.33 3361.32C2838.33 3407.32 2837.67 3412.65 2830.33 3427.65C2817.33 3453.99 2788.33 3462.65 2764.33 3447.65C2736.67 3430.32 2728 3335.99 2750 3292.99C2762.67 3267.99 2790 3259.32 2812.67 3272.99Z" fill="#DBC170"/>
<path d="M380.667 3210.32C375 3215.99 375 3503.32 380.667 3508.99C387 3515.32 434.667 3514.32 440 3507.99C443.333 3503.99 443.667 3484.99 442 3421.99C441 3377.65 439 3332.32 437.667 3321.32C436.667 3310.32 436.667 3302.32 438 3303.32C439.333 3304.65 447 3330.99 455 3361.65C480 3458.99 493 3503.65 497 3508.32C500 3511.99 507 3512.99 523 3512.32L545 3511.32L551 3492.99C554.333 3482.99 568 3435.99 581.333 3388.99L605.333 3303.32L605 3407.32V3511.32H636.667H668.333L669.333 3363.32C670 3254.99 669 3214.32 666.333 3210.65C663.333 3207.32 653 3206.32 620.333 3206.99L578.333 3207.99L570.667 3234.65C566.333 3249.32 554 3292.65 543.333 3331.32C527.333 3389.65 523.667 3399.65 521.667 3391.32C519.667 3382.99 510.333 3349.65 474.667 3223.65L469.667 3206.32H427.333C398.667 3206.32 383.333 3207.65 380.667 3210.32Z" fill="#DBC170"/>
<path d="M890.667 3211.99C883.667 3224.99 798.667 3491.99 798.667 3501.32L798.333 3511.32L830.333 3512.32C853.333 3512.99 863.333 3511.99 865.667 3508.99C867.667 3506.65 872.333 3493.99 875.667 3481.32L882.333 3457.99L926 3456.99L969.667 3455.99L975 3475.32C986.333 3515.65 981 3511.32 1021 3512.32C1048 3512.99 1057.33 3511.99 1058.33 3508.99C1060 3504.99 1014.33 3356.65 977.667 3246.32L965 3207.99L929.333 3206.99C898 3206.32 893.333 3206.65 890.667 3211.99ZM952.333 3394.99C951.333 3395.99 939 3396.32 924.333 3395.65L897.667 3394.65L907 3364.65C912 3347.99 918.667 3325.65 922 3314.65L927.667 3294.65L940.667 3344.32C948 3371.32 953 3394.32 952.333 3394.99Z" fill="#DBC170"/>
<path d="M1550.67 3210.32C1547.67 3213.32 1546.67 3249.32 1546.67 3361.65C1546.67 3492.99 1547.33 3509.32 1552 3510.99C1561.67 3514.65 1611.67 3513.32 1616 3508.99C1618.67 3506.32 1620 3487.32 1620 3445.65V3386.32H1661.67H1703.33L1704 3448.65L1705 3511.32L1737 3512.32C1761.33 3512.99 1770 3511.99 1773 3508.65C1775.67 3504.99 1776.67 3464.65 1776 3355.99L1775 3207.99L1739.33 3206.99C1711.67 3206.32 1703.33 3206.99 1703.33 3210.32C1703 3212.65 1702.67 3239.32 1702.33 3269.65L1701.67 3324.65L1661 3325.65L1620 3326.65L1619.33 3267.32L1618.33 3207.99L1586.67 3206.99C1564.67 3206.32 1553.67 3207.32 1550.67 3210.32Z" fill="#DBC170"/>
<path d="M2001.33 3208.99C1999 3210.32 1976.33 3277.32 1950.67 3357.99C1916.33 3464.99 1904.67 3505.65 1907.33 3508.65C1909.67 3511.65 1921 3512.99 1942.33 3512.99H1973.67L1978 3501.99C1980.67 3496.32 1984.33 3483.32 1987 3473.65L1991.33 3455.99L2034.67 3456.99L2077.67 3457.99L2084.33 3481.32C2087.67 3493.99 2092.33 3506.65 2094 3508.65C2096.33 3511.65 2108 3512.99 2130.67 3512.99C2158 3512.99 2164 3511.99 2165.67 3507.65C2166.67 3504.32 2163 3487.65 2157.67 3469.99C2152 3452.32 2131.33 3387.65 2111.67 3326.32C2092 3264.99 2074.33 3212.65 2072.67 3210.32C2069 3205.99 2008 3204.65 2001.33 3208.99ZM2049.67 3348.32C2055.33 3370.32 2060 3390.32 2060 3392.32C2060 3394.99 2051.67 3396.32 2035 3396.32C2019.33 3396.32 2010 3394.99 2010 3392.65C2010 3388.32 2025.67 3325.65 2030.67 3309.99C2035.33 3295.32 2036.67 3298.32 2049.67 3348.32Z" fill="#DBC170"/>
<path d="M2300.67 3210.32C2297.67 3213.32 2296.67 3250.99 2296.67 3359.99C2296.67 3483.65 2297.33 3505.99 2301.67 3509.65C2305 3512.65 2323 3513.32 2369 3512.32C2424 3510.99 2434 3509.99 2450.67 3503.32C2502.33 3483.32 2531.33 3431.65 2531 3361.32C2530.67 3276.32 2495.33 3224.32 2427.33 3209.99C2403 3204.99 2306 3204.99 2300.67 3210.32ZM2420.67 3274.99C2444 3286.99 2455 3314.99 2455 3362.99C2455 3394.32 2454 3399.99 2446 3416.65C2434.33 3439.99 2418.67 3449.65 2391 3450.65L2371.67 3451.32L2370.67 3362.99C2370.33 3314.32 2370.67 3272.65 2371.67 3270.32C2373.67 3264.65 2406.67 3267.65 2420.67 3274.99Z" fill="#DBC170"/>
<path d="M35.6667 3314.32C12.3333 3322.99 0 3340.99 0 3366.99C0 3418.32 67 3438.99 98.3333 3396.99C108.333 3383.32 107.667 3348.65 97.3333 3333.65C83.3333 3314.32 57.6667 3306.32 35.6667 3314.32Z" fill="#DBC170"/>
<path d="M3221.67 3314.32C3209.33 3319.65 3194 3336.99 3191.33 3348.32C3187.67 3361.99 3192 3384.99 3199.67 3395.99C3209.67 3409.99 3224.67 3416.99 3243.33 3416.99C3262.33 3416.99 3277 3409.99 3287.33 3395.65C3293.33 3386.99 3295 3380.32 3295 3363.99C3295 3341.99 3289.67 3331.32 3272.67 3318.65C3261.67 3310.32 3235 3307.99 3221.67 3314.32Z" fill="#DBC170"/>
<path d="M1841.67 3666.65C1822.33 3672.65 1810 3688.32 1810 3706.99C1810 3724.32 1825 3740.99 1847.67 3747.99C1857.33 3751.32 1868.33 3755.99 1872.67 3758.32C1887 3767.65 1878.67 3782.99 1859 3782.99C1850.67 3782.99 1840 3773.99 1840 3766.99C1840 3761.99 1827 3761.65 1815.33 3766.32C1798 3772.65 1809.33 3794.99 1835 3804.99C1863.33 3815.65 1903.33 3805.32 1912.67 3784.65C1925.67 3756.32 1909.33 3732.32 1868.33 3719.65C1861 3717.32 1853 3713.99 1851 3711.99C1844.33 3706.99 1846 3696.99 1853.33 3692.99C1861.67 3688.65 1870.33 3690.99 1878.33 3699.65C1886 3707.99 1897 3707.99 1907 3699.99C1914.33 3693.99 1914.67 3693.65 1908.67 3684.65C1897.33 3667.32 1866.67 3658.99 1841.67 3666.65Z" fill="#DBC170"/>
<path d="M2271.67 3669.32C2256 3676.32 2248.67 3683.99 2242.33 3699.65C2229 3731.99 2233 3768.65 2252.33 3789.99C2280 3820.65 2330 3813.65 2349.33 3776.32C2356 3763.32 2357 3757.32 2356 3732.65C2355 3707.99 2353.67 3702.32 2345.67 3689.99C2329.33 3665.32 2298.67 3656.65 2271.67 3669.32ZM2309.67 3699.32C2324.67 3714.32 2326.33 3753.99 2313 3770.99C2299 3788.65 2276.33 3777.65 2271.33 3750.99C2264 3712.32 2289 3678.65 2309.67 3699.32Z" fill="#DBC170"/>
<path d="M779 3668.65C777.667 3669.65 776.667 3700.99 776.667 3737.99V3805.32L804.333 3806.99C837.333 3809.32 863 3806.32 874.333 3798.65C891 3787.99 892.333 3755.32 876.667 3741.32C870.333 3735.65 870.333 3735.65 877.333 3726.32C886 3714.32 886.333 3691.65 877.667 3682.32C865.667 3668.99 855 3666.32 817.333 3666.32C797.333 3666.32 780 3667.32 779 3668.65ZM841.333 3694.99C844.667 3696.32 846.667 3700.99 846.667 3707.99C846.667 3720.32 842.667 3722.99 824.667 3722.99C813.333 3722.99 813.333 3722.99 813.333 3707.99C813.333 3692.99 813.333 3692.99 824.667 3692.99C831 3692.99 838.333 3693.99 841.333 3694.99ZM850.667 3758.32C857 3771.65 851 3777.65 830.333 3778.99L813.333 3779.99V3764.99V3749.65H830C844.667 3749.65 847.333 3750.65 850.667 3758.32Z" fill="#DBC170"/>
<path d="M1025.33 3669.32C1024 3670.99 1013 3702.65 1000 3739.32L977 3806.32L984.667 3808.32C989 3809.32 996.667 3809.65 1002 3808.99C1010 3808.32 1012 3805.99 1014.33 3795.32L1017.33 3782.99H1039.67H1062.33L1067.67 3796.32C1072.67 3808.99 1073.33 3809.65 1088 3809.65C1096 3809.65 1103.67 3808.32 1104.67 3806.99C1106.33 3803.99 1064.33 3678.65 1059 3670.32C1056 3665.65 1028 3664.65 1025.33 3669.32ZM1051.67 3746.65C1053.33 3751.99 1052 3752.99 1042 3752.99C1028 3752.99 1028.33 3753.32 1035.67 3729.32L1041 3711.32L1045.33 3725.99C1048 3733.99 1050.67 3743.32 1051.67 3746.65Z" fill="#DBC170"/>
<path d="M1199 3668.65C1197.67 3669.65 1196.67 3700.99 1196.67 3738.32C1196.67 3811.65 1196 3809.65 1216.33 3809.65C1230 3809.65 1233.33 3803.99 1233.33 3778.99C1233.33 3759.65 1234.33 3756.32 1239.33 3756.32C1248.67 3756.32 1252 3760.32 1262.67 3783.32C1272.67 3805.32 1277.67 3809.65 1295 3809.65C1311 3809.65 1311.33 3805.32 1298.67 3776.65C1287.33 3751.99 1286.67 3748.99 1291.67 3744.32C1315.67 3720.32 1308.67 3683.99 1277.67 3670.99C1266.67 3666.32 1203 3664.32 1199 3668.65ZM1264.67 3701.65C1277 3713.65 1265.33 3729.65 1244.33 3729.65C1233.33 3729.65 1233.33 3729.65 1233.33 3712.99V3696.32H1246.33C1254 3696.32 1261.67 3698.65 1264.67 3701.65Z" fill="#DBC170"/>
<path d="M1409 3668.65C1407.67 3669.65 1406.67 3701.32 1406.67 3738.65V3806.65L1456 3805.65L1505 3804.65V3792.99V3781.32L1474.33 3780.32L1443.33 3779.32V3764.65V3749.65H1468.33H1493.33V3736.32V3722.99H1468.33H1443.33V3709.65V3696.32H1473C1500.33 3696.32 1503 3695.65 1505 3689.32C1506.33 3685.65 1506.33 3678.99 1505.33 3674.32C1503.33 3666.32 1503 3666.32 1457 3666.32C1431.67 3666.32 1410 3667.32 1409 3668.65Z" fill="#DBC170"/>
<path d="M1605.67 3668.32C1604.33 3669.65 1603.33 3701.32 1603.33 3738.32V3806.32L1611.67 3808.32C1616 3809.32 1624 3808.99 1629 3807.32C1638 3803.99 1638.33 3803.32 1638.33 3780.99C1638.33 3758.65 1638.67 3757.99 1646.67 3757.99C1655.33 3757.99 1660 3764.65 1671.67 3793.65L1676.67 3806.32H1697C1712 3806.32 1717 3805.32 1715.67 3801.99C1714.67 3799.99 1709 3787.32 1703 3773.99L1692.33 3750.32L1701 3739.99C1713.33 3725.32 1715.67 3709.65 1708 3694.32C1697 3671.99 1688 3667.99 1645.67 3666.99C1625 3666.32 1607.33 3666.99 1605.67 3668.32ZM1671.33 3701.65C1683.67 3713.65 1672 3729.65 1651 3729.65C1640 3729.65 1640 3729.65 1640 3712.99V3696.32H1653C1660.67 3696.32 1668.33 3698.65 1671.33 3701.65Z" fill="#DBC170"/>
<path d="M2018.33 3670.32C2017.33 3672.99 2017 3703.99 2017.33 3739.65L2018.33 3804.65H2035H2051.67L2052.67 3776.99L2053.67 3749.65H2073.33H2093.33V3777.99V3806.32H2111.67H2130V3736.32V3666.32H2111.67H2093.33V3692.99V3719.65H2072.67H2051.67V3693.99V3667.99L2035.67 3666.99C2025 3666.32 2019.33 3667.32 2018.33 3670.32Z" fill="#DBC170"/>
<path d="M2460 3736.32V3806.32H2476.67H2493.33V3788.32C2493.33 3761.32 2494.67 3759.65 2514.67 3759.65C2547.33 3759.65 2568.33 3741.32 2568.33 3712.99C2568.33 3693.99 2560.33 3680.99 2543 3672.32C2534.33 3667.65 2523.33 3666.32 2496 3666.32H2460V3736.32ZM2528 3701.65C2538 3711.65 2534 3723.65 2518.67 3729.65C2502.67 3735.65 2497.33 3731.65 2496 3712.99L2495 3696.32H2509C2517 3696.32 2525 3698.32 2528 3701.65Z" fill="#DBC170"/>
<path d="M355.667 3728.65C354.333 3729.65 353.333 3734.32 353.333 3738.65V3746.32H493.333H633.333V3736.32V3726.32H495.667C419.667 3726.32 356.667 3727.32 355.667 3728.65Z" fill="#DBC170"/>
<path d="M2680 3736.32V3746.32H2819.67H2959.67L2958.67 3736.99L2957.67 3727.99L2818.67 3726.99L2680 3726.32V3736.32Z" fill="#DBC170"/>
</svg>
